<svg width="0" height="0" class="hidden">
  <symbol viewBox="0 0 14 14"  xmlns="http://www.w3.org/2000/svg" id="form-input-tel">
    <path d="M11.996 9.123l-1.838-.21a1.44 1.44 0 0 0-1.187.412l-1.332 1.332a10.888 10.888 0 0 1-4.769-4.77L4.21 4.55a1.44 1.44 0 0 0 .413-1.187l-.21-1.824a1.448 1.448 0 0 0-1.44-1.28H1.72C.902.257.222.937.272 1.754c.384 6.18 5.326 11.116 11.5 11.5.817.05 1.498-.63 1.498-1.448v-1.252a1.434 1.434 0 0 0-1.274-1.432z"
      ></path>
  </symbol>
  <symbol viewBox="0 0 11 11" xmlns="http://www.w3.org/2000/svg" id="close-button">
    <path d="M11 1.108L9.892 0 5.5 4.392 1.108 0 0 1.108 4.392 5.5 0 9.892 1.108 11 5.5 6.608 9.892 11 11 9.892 6.608 5.5 11 1.108z" ></path>
  </symbol>
  <symbol viewBox="0 0 16 12" xmlns="http://www.w3.org/2000/svg" id="form-input-email">
    <path d="M14 0H2C1.175 0 .507.675.507 1.5l-.007 9c0 .825.675 1.5 1.5 1.5h12c.825 0 1.5-.675 1.5-1.5v-9C15.5.675 14.825 0 14 0zm-.3 3.188L8.398 6.502a.759.759 0 0 1-.795 0L2.3 3.187a.637.637 0 1 1 .675-1.08L8 5.25l5.025-3.143a.637.637 0 1 1 .675 1.08z"
    ></path>
  </symbol>
  <symbol viewBox="0 0 16 15" xmlns="http://www.w3.org/2000/svg" id="form-input-is-checkbox">
    <path d="M14.222 1.667v11.666H1.778V1.667h12.444zm0-1.667H1.778C.8 0 0 .75 0 1.667v11.666C0 14.25.8 15 1.778 15h12.444C15.2 15 16 14.25 16 13.333V1.667C16 .75 15.2 0 14.222 0z" ></path>
  </symbol>
  <symbol viewBox="0 0 12 12" xmlns="http://www.w3.org/2000/svg" id="form-input-name">
    <path d="M6 6a3 3 0 1 0 0-6 3 3 0 1 0 0 6zm0 1.5c-2.002 0-6 1.005-6 3v.75c0 .412.338.75.75.75h10.5c.412 0 .75-.338.75-.75v-.75c0-1.995-3.998-3-6-3z" ></path>
  </symbol>
  <symbol viewBox="0 0 16 15" fill="none" xmlns="http://www.w3.org/2000/svg" id="icon-check">
    <path d="M3.957 7.752l-.069-.066-.069.065-.888.842-.076.072.076.073 3.496 3.334.069.066.069-.066 7.504-7.158.076-.073-.076-.072-.882-.841-.069-.066-.069.066-6.553 6.246-2.539-2.422z" fill="#fff" stroke="#fff" stroke-width=".2"></path>
  </symbol>
   <symbol viewBox="0 0 40 40" xmlns="http://www.w3.org/2000/svg" id="menu">
    <path fill-rule="evenodd" clip-rule="evenodd" d="M8 14.667V12h24v2.667H8zm0 6.666h24v-2.666H8v2.666zM8 28h24v-2.667H8V28z" ></path>
  </symbol>
  <symbol viewBox="0 0 40 40" xmlns="http://www.w3.org/2000/svg" id="closebutton">
    <path d="M29.6667 12.88L27.7867 11L20.3333 18.4533L12.88 11L11 12.88L18.4533 20.3333L11 27.7867L12.88 29.6667L20.3333 22.2133L27.7867 29.6667L29.6667 27.7867L22.2133 20.3333L29.6667 12.88Z"></path>
  </symbol>
  <symbol viewBox="0 0 152 20" fill="none" xmlns="http://www.w3.org/2000/svg" id="logo-foot">
    <path d="M8.294.592h3.302l2.08 6.11 2.08-6.11h3.328L15.938 8.99l2.34 5.902L23.504.54h3.9L19.89 19h-3.016l-3.198-7.748L10.478 19H7.462L0 .54h3.848L9.1 14.892l2.288-5.902L8.294.592zM34.379 19.26c-1.092 0-2.08-.182-2.964-.546a6.96 6.96 0 0 1-2.262-1.534 6.926 6.926 0 0 1-1.456-2.236 7.343 7.343 0 0 1-.494-2.678c0-.97.165-1.88.494-2.73a6.53 6.53 0 0 1 1.43-2.262 6.764 6.764 0 0 1 2.262-1.56c.902-.381 1.907-.572 3.016-.572 1.11 0 2.098.19 2.964.572.884.381 1.63.893 2.236 1.534a6.27 6.27 0 0 1 1.404 2.236c.33.85.494 1.733.494 2.652 0 .225-.008.442-.026.65 0 .208-.017.381-.052.52h-10.53c.052.537.182 1.014.39 1.43a3.51 3.51 0 0 0 1.924 1.742c.416.156.85.234 1.3.234.694 0 1.344-.165 1.95-.494.624-.347 1.049-.797 1.274-1.352l2.99.832c-.502 1.04-1.308 1.898-2.418 2.574-1.092.659-2.4.988-3.926.988zm3.536-8.216c-.086-1.023-.468-1.837-1.144-2.444-.658-.624-1.464-.936-2.418-.936-.468 0-.91.087-1.326.26a3.278 3.278 0 0 0-1.066.676 3.77 3.77 0 0 0-.78 1.066c-.19.416-.303.875-.338 1.378h7.072zm14.239 8.216c-1.04 0-1.968-.234-2.782-.702a5.125 5.125 0 0 1-1.924-1.924V19h-3.042V.02h3.484v7.748c.485-.832 1.118-1.473 1.898-1.924.797-.468 1.724-.702 2.782-.702.884 0 1.69.19 2.418.572a5.927 5.927 0 0 1 1.872 1.534 6.622 6.622 0 0 1 1.222 2.262c.294.867.442 1.777.442 2.73 0 .988-.165 1.907-.494 2.756a6.892 6.892 0 0 1-1.326 2.236 6.384 6.384 0 0 1-2.028 1.482 5.89 5.89 0 0 1-2.522.546zm-.962-2.964c.554 0 1.066-.104 1.534-.312a3.84 3.84 0 0 0 1.196-.884c.33-.364.58-.789.754-1.274.19-.485.286-1.005.286-1.56a4.84 4.84 0 0 0-.26-1.586 4.003 4.003 0 0 0-.754-1.326 3.543 3.543 0 0 0-1.118-.91 3.053 3.053 0 0 0-1.43-.338c-.78 0-1.482.26-2.106.78a5.035 5.035 0 0 0-1.404 1.872v3.25c.121.347.294.659.52.936.242.277.511.52.806.728.294.19.615.347.962.468a3.52 3.52 0 0 0 1.014.156z"
      fill="#2196F3"></path>
    <path d="M80.026 5.376c-.121-.121-.346-.286-.676-.494a6.638 6.638 0 0 0-1.17-.598 8.75 8.75 0 0 0-1.482-.52 6.53 6.53 0 0 0-1.638-.208c-.988 0-1.724.182-2.21.546-.485.364-.728.875-.728 1.534 0 .381.087.702.26.962.191.243.46.46.806.65.347.19.78.364 1.3.52.538.156 1.153.32 1.846.494a25.56 25.56 0 0 1 2.444.78c.746.277 1.37.624 1.872 1.04a4.2 4.2 0 0 1 1.196 1.508c.278.572.416 1.283.416 2.132 0 .988-.19 1.837-.572 2.548a4.571 4.571 0 0 1-1.508 1.69c-.624.433-1.352.754-2.184.962-.814.19-1.672.286-2.574.286-1.386 0-2.756-.208-4.108-.624a12.682 12.682 0 0 1-3.64-1.768l1.586-3.094c.156.156.434.364.832.624.416.243.902.494 1.456.754.555.243 1.17.45 1.846.624a8.36 8.36 0 0 0 2.08.26c1.976 0 2.964-.633 2.964-1.898 0-.399-.112-.737-.338-1.014-.225-.277-.546-.52-.962-.728a9.207 9.207 0 0 0-1.508-.572c-.589-.173-1.248-.364-1.976-.572a18.915 18.915 0 0 1-2.314-.78c-.641-.295-1.178-.633-1.612-1.014a4.117 4.117 0 0 1-.988-1.352c-.208-.52-.312-1.135-.312-1.846 0-.936.174-1.768.52-2.496a5.104 5.104 0 0 1 1.43-1.82A6.498 6.498 0 0 1 72.538.8a8.59 8.59 0 0 1 2.626-.39c1.3 0 2.496.208 3.588.624 1.092.399 2.046.875 2.86 1.43l-1.586 2.912zm13.401 12.922c-.468.208-1.04.416-1.716.624a7.209 7.209 0 0 1-2.132.312 5.09 5.09 0 0 1-1.378-.182 3.257 3.257 0 0 1-1.118-.572 3.094 3.094 0 0 1-.754-1.04c-.19-.433-.286-.953-.286-1.56V8.054H84.25V5.376h1.794V.956h3.484v4.42h2.86v2.678h-2.86v6.656c0 .485.122.832.364 1.04.26.19.572.286.936.286.364 0 .72-.06 1.066-.182.347-.121.624-.225.832-.312l.702 2.756zm6.755.962c-1.404 0-2.47-.45-3.198-1.352-.728-.901-1.092-2.236-1.092-4.004V5.376h3.484v7.774c0 2.097.754 3.146 2.262 3.146.676 0 1.326-.2 1.95-.598.641-.416 1.161-1.04 1.56-1.872v-8.45h3.484v9.62c0 .364.061.624.182.78.139.156.355.243.65.26V19a7.272 7.272 0 0 1-1.508.156c-.624 0-1.135-.139-1.534-.416a1.752 1.752 0 0 1-.676-1.196l-.078-1.092c-.607.936-1.387 1.638-2.34 2.106-.953.468-2.002.702-3.146.702zm18.334 0a6.185 6.185 0 0 1-2.6-.546 6.135 6.135 0 0 1-2.054-1.508 7.27 7.27 0 0 1-1.352-2.236 8.152 8.152 0 0 1-.468-2.782c0-.988.147-1.907.442-2.756a7.45 7.45 0 0 1 1.274-2.236 5.812 5.812 0 0 1 1.924-1.508 5.493 5.493 0 0 1 2.444-.546c1.005 0 1.907.243 2.704.728a5.243 5.243 0 0 1 1.898 1.898V.02h3.484v14.976c0 .364.061.624.182.78.121.156.329.243.624.26V19c-.607.121-1.101.182-1.482.182-.624 0-1.135-.156-1.534-.468a1.716 1.716 0 0 1-.676-1.222l-.078-.858a5.007 5.007 0 0 1-2.054 1.976 5.815 5.815 0 0 1-2.678.65zm.91-2.964c.329 0 .667-.052 1.014-.156a3.883 3.883 0 0 0 1.742-1.222 2.87 2.87 0 0 0 .546-.91v-3.25a3.467 3.467 0 0 0-.598-1.04 3.564 3.564 0 0 0-.858-.832 3.912 3.912 0 0 0-1.014-.572 2.782 2.782 0 0 0-1.04-.208c-.52 0-1.005.113-1.456.338a3.404 3.404 0 0 0-1.118.936 4.264 4.264 0 0 0-.728 1.326 4.761 4.761 0 0 0-.26 1.56c0 .572.095 1.1.286 1.586.191.485.451.91.78 1.274s.719.65 1.17.858c.468.208.979.312 1.534.312zM130.412 19V5.376h3.484V19h-3.484zm0-15.522V.02h3.484v3.458h-3.484zm13.699 15.782c-1.109 0-2.106-.19-2.99-.572a6.96 6.96 0 0 1-2.262-1.534 7.08 7.08 0 0 1-1.404-2.262 7.35 7.35 0 0 1-.494-2.678c0-.953.165-1.855.494-2.704a6.78 6.78 0 0 1 1.404-2.236 6.764 6.764 0 0 1 2.262-1.56c.884-.381 1.881-.572 2.99-.572 1.109 0 2.097.19 2.964.572a6.49 6.49 0 0 1 2.236 1.56 6.58 6.58 0 0 1 1.43 2.236c.329.85.494 1.75.494 2.704a7.35 7.35 0 0 1-.494 2.678 7.08 7.08 0 0 1-1.404 2.262c-.607.641-1.352 1.153-2.236 1.534-.884.381-1.881.572-2.99.572zm-3.562-7.046c0 .607.087 1.161.26 1.664.191.485.442.91.754 1.274.329.364.711.65 1.144.858.433.19.901.286 1.404.286a3.44 3.44 0 0 0 1.404-.286 3.39 3.39 0 0 0 1.118-.858c.329-.364.581-.797.754-1.3a4.65 4.65 0 0 0 .286-1.664c0-.59-.095-1.135-.286-1.638a3.718 3.718 0 0 0-.754-1.3 3.104 3.104 0 0 0-1.118-.832 3.2 3.2 0 0 0-1.404-.312 3.2 3.2 0 0 0-1.404.312 3.676 3.676 0 0 0-1.144.858 4.35 4.35 0 0 0-.754 1.3 5.002 5.002 0 0 0-.26 1.638z"
      fill="#fff"></path>
  </symbol>
</svg>